<?xml version="1.0" encoding="UTF-8" standalone="no"?>
<svg
   viewbox="0 0 200 200"
   version="1.1"
   id="svg4"
   sodipodi:docname="user-download.svg"
   width="64"
   height="64"
   inkscape:version="1.4.1 (93de688d07, 2025-03-30)"
   xmlns:inkscape="http://www.inkscape.org/namespaces/inkscape"
   xmlns:sodipodi="http://sodipodi.sourceforge.net/DTD/sodipodi-0.dtd"
   xmlns="http://www.w3.org/2000/svg"
   xmlns:svg="http://www.w3.org/2000/svg">
  <defs
     id="defs8">
    <filter
       style="color-interpolation-filters:sRGB;"
       inkscape:label="Color Shift"
       id="filter6"
       x="0"
       y="0"
       width="1"
       height="1">
      <feColorMatrix
         type="hueRotate"
         values="82"
         result="color1"
         id="feColorMatrix5" />
      <feColorMatrix
         type="saturate"
         values="0.869301"
         result="color2"
         id="feColorMatrix6" />
    </filter>
    <filter
       style="color-interpolation-filters:sRGB;"
       inkscape:label="Color Shift"
       id="filter8"
       x="0"
       y="0"
       width="1"
       height="1">
      <feColorMatrix
         type="hueRotate"
         values="82"
         result="color1"
         id="feColorMatrix7" />
      <feColorMatrix
         type="saturate"
         values="0.869301"
         result="color2"
         id="feColorMatrix8" />
    </filter>
  </defs>
  <sodipodi:namedview
     id="namedview6"
     pagecolor="#ffffff"
     bordercolor="#666666"
     borderopacity="1.0"
     inkscape:pageshadow="2"
     inkscape:pageopacity="0.0"
     inkscape:pagecheckerboard="0"
     showgrid="false"
     inkscape:zoom="5.6568542"
     inkscape:cx="82.466329"
     inkscape:cy="48.525203"
     inkscape:window-width="1455"
     inkscape:window-height="786"
     inkscape:window-x="0"
     inkscape:window-y="0"
     inkscape:window-maximized="1"
     inkscape:current-layer="svg4"
     showguides="false"
     inkscape:showpageshadow="2"
     inkscape:deskcolor="#d1d1d1" />
  <path
     d="M 2,32 C 2,10.4 10.4,2 32,2 53.6,2 62,10.4 62,32 62,53.6 53.6,62 32,62 10.4,62 2,53.6 2,32"
     id="path2"
     style="stroke-width:0.3;fill:#e7a12e;fill-opacity:1;filter:url(#filter6)" />
  <path
     id="rect1033"
     style="fill:#ffffff;stroke-width:2;stroke-linecap:round;stroke-linejoin:round"
     d="M 16 16 C 14.338 16 13 17.338 13 19 L 13 44 C 13 46.216 14.784 48 17 48 L 47 48 C 49.216 48 51 46.216 51 44 L 51 26 C 51 23.784 49.216 22 47 22 L 33 22 A 2 2 0 0 1 31 20 L 31 19 C 31 17.338 29.662 16 28 16 L 16 16 z " />
  <path
     id="rect6908"
     style="fill:#c5660a;stroke-width:4.04387;stroke-linecap:round;stroke-linejoin:round;filter:url(#filter8)"
     d="M 31,26 V 37.171875 L 26.050781,32.222656 24.636719,33.636719 32,41 39.363281,33.636719 37.949219,32.222656 33,37.171875 V 26 Z m -6,16 v 2 h 14 v -2 z"
     sodipodi:nodetypes="ccccccccccccccc" />
</svg>
